<?xml version="1.0" encoding="UTF-8" standalone="no"?>
<!-- Created with Inkscape (http://www.inkscape.org/) -->

<svg
   xmlns:dc="http://purl.org/dc/elements/1.1/"
   xmlns:cc="http://creativecommons.org/ns#"
   xmlns:rdf="http://www.w3.org/1999/02/22-rdf-syntax-ns#"
   xmlns:svg="http://www.w3.org/2000/svg"
   xmlns="http://www.w3.org/2000/svg"
   xmlns:sodipodi="http://sodipodi.sourceforge.net/DTD/sodipodi-0.dtd"
   xmlns:inkscape="http://www.inkscape.org/namespaces/inkscape"
   width="800"
   height="54"
   viewBox="0 0 800 54"
   id="svg3984"
   version="1.1"
   inkscape:version="0.48.4 r9939"
   sodipodi:docname="chrome-bar.svg">
  <defs
     id="defs3986" />
  <sodipodi:namedview
     id="base"
     pagecolor="#ffffff"
     bordercolor="#666666"
     borderopacity="1.0"
     inkscape:pageopacity="0.0"
     inkscape:pageshadow="2"
     inkscape:zoom="1.979899"
     inkscape:cx="70.959731"
     inkscape:cy="88.333492"
     inkscape:document-units="px"
     inkscape:current-layer="layer1"
     showgrid="true"
     fit-margin-top="0"
     fit-margin-left="0"
     fit-margin-right="0"
     fit-margin-bottom="0"
     inkscape:showpageshadow="false"
     inkscape:window-width="1280"
     inkscape:window-height="962"
     inkscape:window-x="-8"
     inkscape:window-y="-8"
     inkscape:window-maximized="1">
    <inkscape:grid
       type="xygrid"
       id="grid4547"
       empspacing="5"
       visible="true"
       enabled="true"
       snapvisiblegridlinesonly="true" />
  </sodipodi:namedview>
  <metadata
     id="metadata3989">
    <rdf:RDF>
      <cc:Work
         rdf:about="">
        <dc:format>image/svg+xml</dc:format>
        <dc:type
           rdf:resource="http://purl.org/dc/dcmitype/StillImage" />
        <dc:title></dc:title>
      </cc:Work>
    </rdf:RDF>
  </metadata>
  <g
     inkscape:label="Layer 1"
     inkscape:groupmode="layer"
     id="layer1"
     transform="translate(417.14288,-506.14787)">
    <g
       id="g4571"
       transform="matrix(0.99968587,0,0,0.99895854,-0.12753157,0.57412183)">
      <g
         transform="matrix(0.8,0,0,0.80597015,-433.14288,161.70669)"
         id="g3947">
        <path
           style="fill:#f3f3f3;fill-opacity:1;stroke:none"
           d="m 129,456.36221 c 0,0 -3,0 -3,2.791 0,2.79101 0,21.39769 0,21.39769 0,0 0,2.791 3,2.791 3,0 843,0 843,0 0,0 3,0 3,-2.791 0,-2.791 0,-21.39769 0,-21.39769 0,0 0,-2.791 -3,-2.791 -3,0 -843,0 -843,0 z"
           id="path3813"
           inkscape:connector-curvature="0" />
        <path
           sodipodi:type="arc"
           style="fill:#f67a00;fill-opacity:1;stroke:none"
           id="path3807"
           sodipodi:cx="40.848045"
           sodipodi:cy="134.65237"
           sodipodi:rx="5.6189737"
           sodipodi:ry="5.6189737"
           d="m 46.467019,134.65237 c 0,3.10328 -2.5157,5.61898 -5.618974,5.61898 -3.103273,0 -5.618973,-2.5157 -5.618973,-5.61898 0,-3.10327 2.5157,-5.61897 5.618973,-5.61897 3.103274,0 5.618974,2.5157 5.618974,5.61897 z"
           transform="matrix(1.0786517,0,0,1.0786517,-1.0030587,298.20454)" />
        <path
           transform="matrix(1.0786517,0,0,-1.0786517,18.963238,588.69056)"
           d="m 46.467019,134.65237 c 0,3.10328 -2.5157,5.61898 -5.618974,5.61898 -3.103273,0 -5.618973,-2.5157 -5.618973,-5.61898 0,-3.10327 2.5157,-5.61897 5.618973,-5.61897 3.103274,0 5.618974,2.5157 5.618974,5.61897 z"
           sodipodi:ry="5.6189737"
           sodipodi:rx="5.6189737"
           sodipodi:cy="134.65237"
           sodipodi:cx="40.848045"
           id="path3809"
           style="fill:#ebc71f;fill-opacity:1;stroke:none"
           sodipodi:type="arc" />
        <path
           sodipodi:type="arc"
           style="fill:#31bb37;fill-opacity:1;stroke:none"
           id="path3811"
           sodipodi:cx="40.848045"
           sodipodi:cy="134.65237"
           sodipodi:rx="5.6189737"
           sodipodi:ry="5.6189737"
           d="m 46.467019,134.65237 c 0,3.10328 -2.5157,5.61898 -5.618974,5.61898 -3.103273,0 -5.618973,-2.5157 -5.618973,-5.61898 0,-3.10327 2.5157,-5.61897 5.618973,-5.61897 3.103274,0 5.618974,2.5157 5.618974,5.61897 z"
           transform="matrix(1.0786517,0,0,-1.0786517,38.929534,588.69056)" />
      </g>
      <path
         sodipodi:nodetypes="sscsccsccscsscsccsccsccs"
         id="path3834"
         d="m -372.24752,540.46301 c 0,0.24812 -0.0849,0.45693 -0.25278,0.62606 l -4.4456,4.47878 c -0.17744,0.16991 -0.38472,0.25505 -0.62144,0.25505 -0.23212,0 -0.4371,-0.0852 -0.61454,-0.25505 l -0.51206,-0.5155 c -0.17285,-0.17452 -0.25966,-0.38295 -0.25966,-0.62606 0,-0.2431 0.0868,-0.45192 0.25966,-0.62606 l 2.00081,-2.01535 -6.86193,0 c -0.23672,0 -0.42908,-0.0863 -0.57708,-0.25852 -0.148,-0.17184 -0.2218,-0.3795 -0.2218,-0.62222 l 0,-0.8815 c 0,-0.2431 0.0738,-0.45038 0.2218,-0.6226 0.148,-0.17183 0.34036,-0.25813 0.57708,-0.25813 l 6.86193,0 -2.00081,-2.02268 c -0.17285,-0.16528 -0.25966,-0.37139 -0.25966,-0.61913 0,-0.24772 0.0868,-0.45384 0.25966,-0.61913 l 0.51206,-0.51589 c 0.17324,-0.17452 0.37783,-0.26159 0.61454,-0.26159 0.24132,0 0.4482,0.0874 0.62144,0.26159 l 4.4456,4.4788 c 0.16788,0.16065 0.25278,0.36677 0.25278,0.61913 z"
         inkscape:connector-curvature="0"
         style="fill:#8d8d8f;stroke:#dedede;stroke-width:0.32119182;stroke-miterlimit:4;stroke-opacity:1;stroke-dasharray:none" />
      <path
         style="fill:#8d8d8f;stroke:#dedede;stroke-width:0.32119182;stroke-miterlimit:4;stroke-opacity:1;stroke-dasharray:none"
         inkscape:connector-curvature="0"
         d="m -405.81968,540.46301 c 0,0.24812 0.0849,0.45693 0.25278,0.62606 l 4.4456,4.47878 c 0.17744,0.16991 0.38472,0.25505 0.62143,0.25505 0.23213,0 0.4371,-0.0852 0.61455,-0.25505 l 0.51206,-0.5155 c 0.17284,-0.17452 0.25966,-0.38295 0.25966,-0.62606 0,-0.2431 -0.0868,-0.45192 -0.25966,-0.62606 l -2.00081,-2.01535 6.86193,0 c 0.23672,0 0.42908,-0.0863 0.57708,-0.25852 0.14799,-0.17184 0.2218,-0.3795 0.2218,-0.62222 l 0,-0.8815 c 0,-0.2431 -0.0738,-0.45038 -0.2218,-0.6226 -0.148,-0.17183 -0.34036,-0.25813 -0.57708,-0.25813 l -6.86193,0 2.00081,-2.02268 c 0.17284,-0.16528 0.25966,-0.37139 0.25966,-0.61913 0,-0.24772 -0.0868,-0.45384 -0.25966,-0.61913 l -0.51206,-0.51589 c -0.17324,-0.17452 -0.37783,-0.26159 -0.61455,-0.26159 -0.24131,0 -0.44819,0.0874 -0.62143,0.26159 l -4.4456,4.4788 c -0.16788,0.16065 -0.25278,0.36677 -0.25278,0.61913 z"
         id="path3860"
         sodipodi:nodetypes="sscsccsccscsscsccsccsccs" />
      <path
         id="path3885"
         d="m -348.42074,535.31639 v 3.58297 c 0,0.13885 -0.0502,0.25888 -0.15115,0.3601 -0.10092,0.10121 -0.21961,0.15228 -0.35743,0.15183 h -3.55643 c -0.22228,0 -0.3792,-0.1066 -0.46856,-0.31979 -0.0902,-0.20782 -0.0529,-0.39188 0.11113,-0.55177 l 1.09495,-1.10356 c -0.78331,-0.73049 -1.70709,-1.0955 -2.77003,-1.0955 -0.55036,0 -1.07537,0.10794 -1.57594,0.32382 -0.50057,0.21588 -0.93312,0.50788 -1.2981,0.87558 -0.36498,0.36771 -0.65483,0.80349 -0.86911,1.30779 -0.21427,0.50431 -0.32141,1.03325 -0.32141,1.58771 0,0.55446 0.10714,1.08385 0.32141,1.58771 0.21428,0.5043 0.50413,0.94009 0.86911,1.30779 0.36498,0.3677 0.79753,0.66016 1.2981,0.87558 0.50057,0.21544 1.02558,0.32427 1.57594,0.32427 0.62994,0 1.22564,-0.13929 1.78667,-0.41652 0.56148,-0.27724 1.03492,-0.66913 1.42035,-1.17567 0.0373,-0.0533 0.0983,-0.0847 0.18271,-0.0958 0.0742,0 0.14004,0.0242 0.19828,0.0721 l 1.08693,1.10356 c 0.0471,0.0425 0.073,0.0976 0.0756,0.16392 0.004,0.0662 -0.0174,0.12585 -0.0591,0.18005 -0.57748,0.70272 -1.27543,1.24821 -2.09652,1.63473 -0.82065,0.38652 -1.68486,0.57999 -2.59576,0.57999 -0.82554,0 -1.61418,-0.16167 -2.36547,-0.48772 -0.7513,-0.32606 -1.39946,-0.76228 -1.94493,-1.31183 -0.54546,-0.55043 -0.97935,-1.20298 -1.3021,-1.95944 -0.32233,-0.75649 -0.48326,-1.55057 -0.48326,-2.38226 0,-0.83171 0.16138,-1.62623 0.48412,-2.38313 0.32275,-0.7569 0.75708,-1.40991 1.3021,-1.95944 0.54547,-0.54955 1.19364,-0.98667 1.94493,-1.31182 0.7513,-0.32516 1.53949,-0.48774 2.36547,-0.48774 0.77798,0 1.53061,0.1478 2.25835,0.44384 0.72817,0.29605 1.37501,0.71303 1.94092,1.2518 l 1.03137,-1.03188 c 0.15382,-0.16526 0.3392,-0.20289 0.55569,-0.11198 0.20671,0.0909 0.30897,0.24813 0.30897,0.47206 l 0.002,-0.002 z"
         inkscape:connector-curvature="0"
         style="fill:#8d8d8f;fill-opacity:1" />
      <path
         id="path3921"
         d="m 372.1036,544.40541 v 1.31438 c 0,0.17824 -0.0592,0.33177 -0.17808,0.46228 -0.11896,0.13053 -0.25888,0.1955 -0.42128,0.1955 h -13.1745 c -0.1625,0 -0.30292,-0.065 -0.42129,-0.1955 -0.11898,-0.12993 -0.17767,-0.28404 -0.17767,-0.46228 v -1.31438 c 0,-0.1788 0.0591,-0.33175 0.17767,-0.46284 0.11837,-0.13109 0.25879,-0.19548 0.42129,-0.19433 h 13.1745 c 0.1624,0 0.30232,0.065 0.42128,0.19433 0.1184,0.13051 0.17808,0.28404 0.17808,0.46284 z m 0,-5.25693 v 1.31438 c 0,0.17881 -0.0592,0.33233 -0.17808,0.46342 -0.11896,0.13053 -0.25888,0.19549 -0.42128,0.19492 h -13.1745 c -0.1625,0 -0.30292,-0.065 -0.42129,-0.19492 -0.11898,-0.13109 -0.17767,-0.28518 -0.17767,-0.46342 v -1.31438 c 0,-0.17767 0.0591,-0.33176 0.17767,-0.46227 0.11837,-0.13052 0.25879,-0.1955 0.42129,-0.19493 h 13.1745 c 0.1624,0 0.30232,0.065 0.42128,0.19493 0.1184,0.12993 0.17808,0.28403 0.17808,0.46227 z m 0,-5.25694 v 1.31437 c 0,0.17824 -0.0592,0.33177 -0.17808,0.46228 -0.11896,0.13051 -0.25888,0.19491 -0.42128,0.19491 h -13.1745 c -0.1625,0 -0.30292,-0.065 -0.42129,-0.19491 -0.11898,-0.12994 -0.17767,-0.28404 -0.17767,-0.46228 v -1.31437 c 0,-0.17766 0.0591,-0.33176 0.17767,-0.46228 0.11837,-0.13052 0.25879,-0.19549 0.42129,-0.19492 h 13.1745 c 0.1624,0 0.30232,0.065 0.42128,0.19492 0.1184,0.12994 0.17808,0.28403 0.17808,0.46228 z"
         inkscape:connector-curvature="0"
         style="fill:#8d8d8d;fill-opacity:1;stroke:#8d8d8d;stroke-width:0.32119182;stroke-miterlimit:4;stroke-opacity:1;stroke-dasharray:none" />
    </g>
  </g>
</svg>
